<?xml version="1.0" encoding="utf-8"?>
<!-- Generator: Adobe Illustrator 26.0.0, SVG Export Plug-In . SVG Version: 6.00 Build 0)  -->
<svg version="1.1" id="图层_1" transform="matrix(1,0,0,1,0,0)"
	 xmlns="http://www.w3.org/2000/svg" xmlns:xlink="http://www.w3.org/1999/xlink" x="0px" y="0px" viewBox="0 0 209 212"
	 style="enable-background:new 0 0 209 212;" xml:space="preserve">
<style type="text/css">
	.st0{fill:#FFFFFF;}
	.st1{fill:#1A2D79;}
</style>
<desc>Created with Snap</desc>
<g id="root">
	<rect x="-8283" y="-6132.7" class="st0" width="16000" height="12000"/>
	<g id="content" transform="matrix(1,0,0,1,-1.65,9.2)">
		<g>
			<g>
				<path id="prefix-gne-形状结合_00000031911225768564294660000016384278689799027391_" class="st1" d="M202.9-2.8v148.6
					c0,0.4,0,0.8,0,1.2v0.1c0,0.9-0.1,1.8-0.1,2.6c-0.4,4.6-1.4,9.2-3,13.6c-1.3,3.5-3,6.8-5,9.9c-3.7,5.7-8.5,10.6-14.1,14.4
					c-2.9,2-6,3.7-9.3,5l-0.6,0.2c-1.4,0.6-2.9,1.1-4.4,1.5l-0.6,0.2c-1.3,0.4-2.6,0.7-3.9,0.9l-0.5,0.1l-0.5,0.1l-0.5,0.1
					c-0.5,0.1-0.9,0.2-1.5,0.2c-0.9,0.1-1.9,0.2-2.8,0.3l-1,0.1c-1,0.1-1.9,0.1-2.9,0.1H7.8V-2.8H202.9L202.9-2.8z M37.3,69.7H10.4
					v43.9c0,0.1,0,0.1,0,0.2v0.2l0.1,0.3l0.1,0.7c0.5,3.2,1.2,6.4,4.2,11.4c3.3,5.5,5.9,7.6,8.7,9.8c0.2,0.1,0.4,0.3,0.5,0.4
					l0.5,0.4c2.5,2,5.2,4.5,8.3,9.7c3.5,6,4.1,9.7,4.7,13.3l0.1,0.3l0.1,0.7c0.5,3.2,1.3,6.4,4.2,11.4s5.4,7.2,7.9,9.2l0.5,0.4
					l0.3,0.2c2.9,2.2,5.8,4.6,9.4,10.5c0.2,0.4,0.4,0.8,0.7,1.1h6.8c-0.6-1.5-1.4-2.9-2.2-4.2c-3-5-5.4-7.2-7.9-9.2l-0.5-0.4
					l-0.3-0.2c-2.9-2.2-5.9-4.6-9.4-10.5c-3.2-5.4-4-9-4.5-12.3l-0.1-0.7l-0.1-0.3l-0.1-0.7c-0.5-3.3-1.2-6.5-4.3-11.7
					c-2.9-5-5.4-7.2-7.9-9.2l-0.5-0.4l-0.3-0.2c-2.9-2.2-5.8-4.6-9.4-10.5c-3.2-5.4-4-9-4.5-12.3l-0.1-0.7l-0.1-0.3l-0.1-0.7
					c-0.5-3.3-1.2-6.5-4.2-11.7l0.3-0.2l1,0.9l-1-0.9l0,0l1-0.9c8.2-7.4,18.5-12,29.4-13.3l1.4-0.2l0,0c0.5-0.1,1-0.1,1.4-0.1
					c1.2-0.1,2.3-0.1,3.5-0.1c1.1,0,2.2,0,3.3,0.1c0.5,0,1,0.1,1.5,0.1c0.3,0,0.7,0.1,1,0.1c-0.4-0.3-0.9-0.5-1.3-0.8
					c-0.7-0.5-1.5-1-2.1-1.4C45.7,77.6,41.3,73.9,37.3,69.7L37.3,69.7z M66.4,113.9L66.4,113.9c0.7,2.4,0.8,5.1,0.3,7.8
					c1.4,1.5,2.8,3.4,4.3,6c3.5,6,4.1,9.7,4.7,13.3l0.1,0.7c0.5,3.3,1.2,6.5,4.3,11.7c2.9,5,5.4,7.2,7.9,9.2l0.5,0.4l0.3,0.2
					c2.9,2.2,5.8,4.6,9.4,10.5c3.5,6,4.1,9.7,4.7,13.3c0.3,2.2,0.7,4.2,1.6,6.8h6.7c-2.4-4.6-2.9-7.8-3.4-10.9
					c-0.6-3.5-1.1-6.8-4.4-12.4c-3.3-5.5-5.9-7.6-8.7-9.8c-2.9-2.2-5.9-4.6-9.4-10.5c-3.3-5.6-4-9.2-4.6-12.6l-0.1-0.7
					c-0.1-0.9-0.3-1.8-0.5-2.7l-0.2-0.7c-4.5-3.3-7.7-8.8-8.4-15.3c-0.1-0.7-0.2-1.5-0.2-2.2v0.6c0,0.6,0.1,1.1,0.2,1.7
					c-1.4-1.4-2.7-2.4-4-3.5C67.2,114.5,66.9,114.2,66.4,113.9L66.4,113.9l-0.1-0.4C66.4,113.6,66.4,113.7,66.4,113.9L66.4,113.9z
					 M25.9,107.2c0.5,2.8,1.4,5.8,4,10.3c3.3,5.5,5.9,7.6,8.7,9.8c2.9,2.2,5.9,4.6,9.4,10.5c3.3,5.6,4,9.2,4.6,12.6l0.1,0.7l0.1,0.7
					c0.5,3.3,1.2,6.5,4.3,11.7c2.9,5,5.4,7.2,7.9,9.2l0.5,0.4l0.3,0.2c2.9,2.2,5.8,4.6,9.4,10.5c2.5,4.2,3.5,7.3,4.1,10h5.6
					c0-0.3-0.1-0.5-0.1-0.8l-0.1-0.7c-0.5-3.3-1.2-6.5-4.3-11.7c-2.8-4.8-5.2-7-7.6-9l-0.5-0.4l-0.5-0.4c-2.9-2.2-5.8-4.6-9.4-10.5
					c-3.5-6-4.1-9.7-4.7-13.3l-0.1-0.3l-0.1-0.7c-0.5-3.2-1.3-6.4-4.2-11.4c-0.2-0.3-0.3-0.6-0.5-0.8c-0.4,0-0.9-0.1-1.3-0.2
					c-5-1-8.5-5.4-9.4-10.7c-2.1-1.8-4.4-4.3-6.9-8.6c-0.9-1.5-1.7-3-2.3-4.6c0.6,0.2,1.1,0.3,1.7,0.5c0.6,0.2,1.1,0.3,1.7,0.4
					c0.4,0.7,0.8,1.5,1.3,2.4c1.6,2.7,3.1,4.6,4.5,6.1c0,0.4-0.1,0.7-0.1,1.1v-0.6c0-0.2,0-0.4,0-0.6c0-0.8,0.1-1.6,0.3-2.4
					c0.2-1.2,0.6-2.3,1.1-3.3c-0.1-0.1-0.1-0.2-0.2-0.3c-0.3-0.5-0.6-1-0.8-1.5c-2.1-0.2-4.1-0.6-6.1-1c-0.6-0.1-1.1-0.2-1.7-0.4
					c-0.6-0.1-1.1-0.3-1.7-0.5C30.5,109.1,28.2,108.2,25.9,107.2L25.9,107.2z M10.4,123.6v11.8c2,2.4,3.7,3.8,5.6,5.2
					c2.8,2.3,5.8,4.6,9.3,10.6s4.1,9.7,4.7,13.3c0.6,3.5,1.1,6.8,4.4,12.4c3.3,5.5,5.9,7.6,8.7,9.8c2.3,1.8,4.6,3.6,7.2,7.2h7.3
					c-3-5-5.5-7.1-8-9.1l-0.6-0.4c-2.9-2.2-5.8-4.6-9.4-10.6c-3.5-6-4.1-9.7-4.7-13.3c-0.6-3.5-1.1-6.8-4.4-12.4s-5.9-7.6-8.7-9.8
					c-2.8-2.3-5.8-4.6-9.3-10.6C11.8,126.3,11.1,125,10.4,123.6L10.4,123.6z M97.3,134.7c-1.7,1-3.6,1.6-5.6,1.9
					c0.6,2.2,1.6,4.6,3.5,7.9c2.9,4.8,5.2,7,7.6,9l0.5,0.4l0.5,0.4c2.9,2.2,5.8,4.6,9.4,10.5c3.3,5.6,4,9.2,4.6,12.6l0.1,0.7
					c0.6,3.5,1.1,6.8,4.4,12.4c0.7,1.3,1.5,2.4,2.2,3.4h7.8c-0.1-0.1-0.3-0.3-0.4-0.4l0,0l-0.4-0.4c-0.2-0.3-0.4-0.5-0.7-0.8
					c-1.1-1.4-2.2-3-3.3-4.9c-3.5-6-4.1-9.7-4.7-13.3l-0.2-1.3c-0.5-2.8-1.2-5.9-4-10.7l-0.2-0.4c-3-5-5.4-7.2-7.9-9.2l-0.8-0.6
					c-2.9-2.2-5.9-4.6-9.4-10.6c-1.3-2.2-2.3-4.2-3-6.1L97.3,134.7z M83.1,135.3c0.1,0.4,0.1,0.8,0.2,1.2l0.1,0.3l0.1,0.7
					c0.5,3.2,1.2,6.4,4.2,11.4c3.3,5.5,5.9,7.6,8.7,9.8c2.9,2.2,5.9,4.6,9.4,10.5c3.5,6,4.1,9.7,4.7,13.3l0.1,0.4l0.1,0.7
					c0.5,2.9,1.1,5.9,3.6,10.2h7.1c-0.4-0.6-0.8-1.3-1.2-2c-3.5-6-4.1-9.7-4.7-13.3c-0.6-3.5-1.1-6.8-4.4-12.4c-3-5-5.4-7.2-7.9-9.2
					l-0.5-0.4l-0.3-0.2c-2.9-2.2-5.8-4.6-9.3-10.5c-2.1-3.6-3.2-6.3-3.8-8.7l-0.1-0.4c-1.9,0-3.7-0.4-5.4-1.1L83.1,135.3z
					 M60.2,131.8c-1.2,0.8-2.6,1.4-4,1.7l-0.5,0.1c3.4,5.8,3.9,9.4,4.5,13l0.1,0.3l0.1,0.7c0.5,3.2,1.2,6.4,4.2,11.4
					c3.3,5.5,5.9,7.6,8.7,9.8l0.5,0.4c2.7,2.1,5.5,4.5,8.8,10.1s4,9.2,4.6,12.6l0.1,0.7c0.1,0.4,0.1,0.8,0.2,1.2H93
					c-0.1-0.7-0.2-1.3-0.3-2c-0.6-3.5-1.1-6.8-4.4-12.4c-3.3-5.5-5.9-7.6-8.7-9.8c-2.9-2.2-5.9-4.6-9.4-10.5
					c-3.3-5.6-4-9.2-4.6-12.6l-0.1-0.7l-0.1-0.7c-0.5-3.3-1.2-6.5-4.3-11.7c-0.2-0.4-0.5-0.8-0.8-1.3L60.2,131.8L60.2,131.8z
					 M125.4,175.3l0.5,0.9l0,0c0.5,2.7,1.5,5.6,3.9,9.8c0.7,1.2,1.4,2.2,2.1,3.2c0.3,0.5,0.7,0.9,1,1.3c0.5,0.6,1,1.3,1.6,1.8
					l-0.2-0.2l0.2,0.2c0.2,0.2,0.3,0.3,0.5,0.5c0.1,0.1,0.2,0.2,0.4,0.4s0.4,0.4,0.6,0.6h5.3c-0.3-0.2-0.6-0.5-0.9-0.7
					c-1.3-1-2.6-2.1-3.8-3.3c-0.7-0.7-1.5-1.4-2.1-2.1c-0.9-0.9-1.8-1.9-2.6-3c-2.2-2.7-4.3-5.5-6-8.6l0,0
					C125.8,175.9,125.6,175.6,125.4,175.3L125.4,175.3z M15.8,101.2c1.4,3.3,1.8,5.9,2.2,8.4c0.6,3.5,1.1,6.8,4.4,12.4
					c3.3,5.5,5.9,7.6,8.7,9.8l0.5,0.4c2.7,2.1,5.5,4.5,8.8,10.1c3.5,6,4.1,9.7,4.7,13.3c0.1,0.3,0.1,0.7,0.2,1l0.1,0.7
					c0.5,2.9,1.3,6,4.1,10.7c3,5,5.4,7.2,7.9,9.2l0.8,0.6l0.5,0.4c2.7,2.1,5.5,4.5,8.8,10.1c1.2,2.1,2.1,3.9,2.7,5.6h6.2
					c-0.6-2.4-1.6-5.1-3.7-8.7c-2.9-4.8-5.2-7-7.6-8.9l-0.5-0.4l-0.5-0.4l-0.5-0.4c-2.7-2.1-5.5-4.5-8.8-10.1
					c-3.5-6-4.1-9.7-4.7-13.3c-0.6-3.5-1.1-6.8-4.4-12.4s-5.9-7.6-8.7-9.8c-2.9-2.3-5.9-4.6-9.4-10.6c-3.4-5.9-4.1-9.5-4.7-13.1
					l0.5,0.3l-0.5-0.3C20.5,104.4,18.1,102.9,15.8,101.2l-0.6-0.4C15.4,100.9,15.6,101,15.8,101.2L15.8,101.2z M10.4,139.2v7.3
					c2.3,1.9,4.7,4.3,7.4,9c3.3,5.6,4,9.2,4.6,12.6l0.1,0.7l0.1,0.7l0.1,0.7c0.5,3.1,1.3,6.2,4.1,11c3.1,5.2,5.6,7.3,8.2,9.4
					l0.5,0.4c1.1,0.9,2.2,1.8,3.3,2.8H47c-1.9-2.3-3.7-3.7-5.5-5.1c-2.9-2.2-5.9-4.6-9.4-10.5c-3.5-6-4.1-9.7-4.7-13.3
					c-0.6-3.5-1.1-6.8-4.4-12.4c-2.8-4.8-5.2-7-7.6-8.9l-0.5-0.4l-0.5-0.4C13.1,141.6,11.8,140.6,10.4,139.2L10.4,139.2z
					 M65.8,124.7c-0.8,2.1-2.1,4-3.6,5.4c-0.4,0.4-0.8,0.7-1.2,1.1l0.4-0.3c0.3-0.2,0.5-0.5,0.8-0.7c0.4,0.6,0.8,1.3,1.2,2
					c3.5,6,4.1,9.7,4.7,13.3l0.1,0.7c0.5,3.3,1.2,6.5,4.3,11.7c3.3,5.5,5.9,7.6,8.7,9.8c2.9,2.2,5.9,4.6,9.4,10.5
					c3.5,6,4.1,9.7,4.7,13.3c0.1,0.8,0.3,1.6,0.4,2.4h6c-0.8-2.4-1.1-4.4-1.5-6.4c-0.6-3.5-1.1-6.8-4.4-12.4c-2.9-5-5.4-7.2-7.9-9.2
					l-0.8-0.6c-2.9-2.2-5.8-4.6-9.4-10.5c-3.4-5.8-4.1-9.4-4.6-13l-0.1-0.3c-0.6-3.5-1.1-6.8-4.4-12.3
					C67.9,127.5,66.9,126.1,65.8,124.7l0.2-0.6l0.2-0.6C66.1,123.9,66,124.3,65.8,124.7L65.8,124.7z M10.5,150.2v10.1
					c3.4,5.8,4,9.5,4.6,13s1.1,6.8,4.4,12.4c2.5,4.2,4.5,6.4,6.6,8.1H35c-0.3-0.2-0.6-0.4-0.9-0.7c-2.9-2.2-5.8-4.6-9.4-10.6
					c-3.5-6-4.1-9.7-4.7-13.3l-0.1-0.7c-0.5-3.3-1.2-6.5-4.2-11.7C13.7,153.7,12.1,151.7,10.5,150.2L10.5,150.2z M10.5,166.1v27.7
					h11.7c-1.6-1.6-3.2-3.7-5-6.8c-3.3-5.6-4-9.2-4.6-12.6l-0.1-0.7C12,171.3,11.7,169,10.5,166.1L10.5,166.1z M143,101.1
					c-11.3,8.7-19,21.4-21.5,35.3c-0.1,0.6-0.2,1.1-0.3,1.6c-0.1,0.6-0.2,1.1-0.2,1.6c-0.3,2.2-0.4,4.5-0.4,6.7v0.2
					c0,0.6,0,1.2,0.1,1.8l0,0c0,0.6,0.1,1.3,0.1,1.9c0.7,11,4.7,21.4,11.2,30.1c0.8,1.1,1.7,2.2,2.6,3.2c0.7,0.8,1.4,1.6,2.1,2.3
					c0.6,0.6,1.2,1.3,1.8,1.8l0.1,0.1c0.7,0.7,1.5,1.4,2.3,2c0.7,0.6,1.4,1.2,2.1,1.7c0.2-0.2,0.4-0.3,0.7-0.6l0,0
					c0.3-0.3,0.7-0.6,1-0.8c1.5-1.2,2.9-2.5,4.2-3.8c0.3-0.3,0.6-0.6,0.9-1c0.3-0.3,0.6-0.6,0.9-1c8.6-9.6,13.8-21.8,14.6-34.8
					c0-0.2,0-0.4,0-0.6c0.1-0.7,0.1-1.4,0.1-2.1v0.3c0-0.2,0-0.4,0-0.6l0,0c0-1.7-0.1-3.4-0.3-5.1c-0.1-0.9-0.2-1.8-0.3-2.7
					c-0.2-1.7-0.5-3.4-0.9-5.1c-0.2-0.9-0.5-1.8-0.7-2.7c-0.5-1.7-1-3.4-1.7-5.1c-0.3-0.9-0.7-1.8-1.2-2.7c-0.8-1.7-1.7-3.4-2.6-5.1
					c-0.5-0.9-1.1-1.9-1.7-2.7c-1.1-1.8-2.4-3.5-3.8-5.1c-0.8-1-1.6-1.9-2.5-2.7C147.7,105,145.4,103,143,101.1L143,101.1z
					 M104.2,127.9c-1.3,2-2.8,3.8-4.6,5.2c0,0.1,0.1,0.3,0.1,0.4c0.7,2,1.7,4.1,3,6.5c3.3,5.5,5.9,7.6,8.7,9.8
					c2.3,1.8,4.6,3.6,7.2,7.2l0.3,0.5c-0.6-3.2-1-6.4-1-9.6c-0.2-0.2-0.4-0.3-0.6-0.5c-2.9-2.2-5.9-4.6-9.4-10.5
					c-2.1-3.5-3.1-6.2-3.7-8.5V127.9L104.2,127.9z M200.3,141.3h-32.4l0.1,1c0.1,1.4,0.1,2.7,0.1,4.1l0,0h32.1c0-0.1,0-0.3,0-0.4
					L200.3,141.3L200.3,141.3z M105.1,104.6c1.6,3.2,2.5,6.9,2.5,10.8c0,2.9-0.5,5.6-1.4,8.2l-0.2,0.6c0.6,3.2,1.3,6.4,4.2,11.4
					c2.9,4.9,5.3,7.1,7.7,9.1c0.1-2.5,0.3-5,0.7-7.5c0-0.2,0.1-0.4,0.1-0.6l-0.1,0.6c-1-1.3-2.1-2.8-3.2-4.7
					c-3.5-6-4.1-9.7-4.7-13.3l-0.1-0.3l-0.1-0.7c-0.5-3.2-1.3-6.4-4.2-11.4C106,106,105.6,105.3,105.1,104.6L105.1,104.6
					L105.1,104.6L105.1,104.6L105.1,104.6z M200.3,133.5h-33.6c0.4,1.7,0.7,3.4,0.9,5.1h32.7V133.5L200.3,133.5z M101.4,99.4
					l0.5,0.5h2.9c1.2,1.4,2.6,3.2,4,5.6c3.4,5.8,4.1,9.4,4.6,13l0.1,0.3c0.6,3.5,1.1,6.8,4.4,12.4c0.5,0.9,1.1,1.7,1.6,2.5
					c-0.1,0.6-0.3,1.2-0.4,1.8l-0.1,0.6l0.1-0.6c0.1-0.6,0.2-1.2,0.4-1.8c3-13.3,10.4-25.2,21-33.7H102L101.4,99.4z M200.3,125.7
					h-35.9c0.6,1.7,1.2,3.4,1.6,5.1h34.3V125.7L200.3,125.7z M202.8,117.8h-42.1c0.9,1.7,1.8,3.4,2.5,5.1h37v-5.1H202.8L202.8,117.8
					z M71.9,106.4c-0.3,0.1-0.5,0.3-0.8,0.4c-1.9,0.9-3.9,1.7-5.9,2.3c-0.1,0-0.2,0.1-0.3,0.1l0.3-0.1c1.4,1.4,2.7,2.5,4,3.5
					c0.7,0.6,1.5,1.2,2.2,1.8c0,0.3-0.1,0.6-0.1,0.9v0.1c0-0.3,0-0.6,0.1-0.9c0.1-2.2,0.4-4.3,1.1-6.3c-0.5-0.4-1-0.9-1.4-1.3
					l0.4-0.2L71.9,106.4z M200.3,110h-44.6c1.3,1.6,2.5,3.3,3.5,5.1h41.1L200.3,110L200.3,110z M48.1,85.3c-0.7,0-1.5,0-2.3,0.1
					c-0.5,0-0.9,0.1-1.4,0.1s-1,0.1-1.5,0.1c-2.1,0.2-4.3,0.5-6.4,1c-0.4,0.1-0.9,0.2-1.3,0.3c-0.1,0-0.3,0.1-0.4,0.1
					c-1.9,0.5-3.8,1.1-5.6,1.8L28,89.4c-0.4,0.2-0.8,0.3-1.2,0.6c-1.9,0.8-3.7,1.8-5.4,2.9c-0.4,0.2-0.8,0.4-1.1,0.7
					c-0.4,0.2-0.7,0.5-1.1,0.8c-1.5,1-2.8,2-4.2,3.2c2.3,2,4.8,3.7,7.4,5.2c0.5,0.3,1,0.6,1.5,0.8c0.5,0.3,1,0.5,1.5,0.8
					c2,1,4.1,1.9,6.3,2.6c0.5,0.2,1,0.3,1.6,0.5l0,0c0.5,0.2,1,0.3,1.6,0.4l0,0c2,0.6,4,0.9,6.1,1.2c0.5,0.1,1,0.1,1.6,0.2l1.6,0.2
					c0.5,0.1,1.1,0.1,1.6,0.1c0.8,0,1.6,0.1,2.4,0.1c1,0,2,0,3-0.1c0.5,0,1-0.1,1.5-0.1l0,0c0.5,0,0.9-0.1,1.4-0.2
					c2.2-0.2,4.4-0.7,6.6-1.2c0.5-0.1,0.9-0.2,1.4-0.3c0.1-0.1,0.3-0.1,0.4-0.1c0.3-0.1,0.6-0.2,0.9-0.3c2-0.6,4-1.4,5.9-2.3
					c0.4-0.2,0.8-0.4,1.2-0.6c0.4-0.2,0.8-0.4,1.2-0.6c1.5-0.8,3-1.6,4.4-2.5l0,0l0,0c0.3-0.2,0.6-0.3,0.8-0.5
					c0.3-0.2,0.7-0.5,1.1-0.8s0.7-0.5,1.1-0.8c0.7-0.5,1.4-1.1,2.1-1.6l-0.6-0.5c-1.8-1.5-3.6-2.8-5.6-4l-0.6-0.4
					c-0.5-0.3-1-0.6-1.5-0.9c-0.6-0.3-1.3-0.7-1.9-1l0,0c-2.2-1.1-4.6-2.1-6.9-2.8c-0.5-0.2-1-0.3-1.5-0.4s-0.9-0.3-1.4-0.4
					c-0.3-0.1-0.6-0.2-0.9-0.3c-1.7-0.4-3.4-0.7-5.1-1c-0.5-0.1-0.9-0.1-1.4-0.2s-0.9-0.1-1.4-0.1C50.9,85.3,49.5,85.2,48.1,85.3
					L48.1,85.3z M200.3,99.8h-54.6c2.8,2.2,5.4,4.7,7.7,7.4l0,0h46.9L200.3,99.8L200.3,99.8z M168.5,69.7H83.8l0.4,0.7
					c0.2,0.5,0.5,1,0.7,1.5V72c1.9,4.4,3.5,9,4.7,13.7l0,0c0.3,1.2,0.6,2.5,0.8,3.7c0.3,1.6,0.6,3.1,0.8,4.7l0.6,0.1
					c1.4,0.2,2.8,0.6,4.1,1.2l0,0c1.1,0.4,2,1,3,1.7c0.5,0.4,1,0.8,1.5,1.2L99.9,98c-0.3-0.3-0.7-0.5-1-0.8h69.6V69.7L168.5,69.7z
					 M81.4,94.4l0.4,0.3c0.4,0.3,0.8,0.6,1.1,0.9l0,0c0.3-0.1,0.6-0.3,0.9-0.4l0.2-0.1l-0.2,0.1c-0.1-0.1-0.2-0.3-0.3-0.4l0,0
					C82.7,94.7,82,94.5,81.4,94.4z M168.5,62.8H80.1l0.4,0.6c0.5,0.8,1,1.7,1.4,2.6c0.1,0.4,0.3,0.7,0.4,1v0.1
					c-0.1-0.4-0.3-0.8-0.4-1.2l0.2,0.4c0.1,0.3,0.3,0.5,0.4,0.8h86v1.1l0,0V62.8L168.5,62.8z M176.5-0.1h-5.4v67.2h5.4v0.8V-0.1
					L176.5-0.1z M192.6-0.1h-5.4v67.2h5.4v0.8V-0.1L192.6-0.1z M200.3-0.1h-5.1v67.2h5.1V-0.1L200.3-0.1z M184.5-0.1h-5.4v67.2h5.4
					V-0.1L184.5-0.1z M18.1,24.5l0.2,0.9c3,15,10.1,28.8,20.5,40l0.7,0.7l0.5,0.6l0.3,0.3H78l-0.2-0.5L77.5,66l-0.3-0.5l-0.6-1.1
					c-0.4-0.8-0.9-1.5-1.4-2.2c-5-7.8-11.2-14.8-18.5-20.6c-6.1-4.9-12.9-8.9-20.2-11.9c-5.3-2.2-10.9-3.9-16.5-5l-1.2-0.2
					L18.1,24.5L18.1,24.5z M168.5,55.9h-80c-1.4,1.4-2.9,2.7-4.5,3.9h84.5V55.9L168.5,55.9z M168.5,49H94.4c-1,1.3-2,2.6-3.1,3.9
					h77.2V49L168.5,49z M168.5,42.2h-70c-0.7,1.3-1.4,2.6-2.1,3.9h72.1V42.2L168.5,42.2z M168.5-0.1h-64.9v20.6
					c0,6.6-1.3,12.9-3.7,18.7h68.6V-0.1L168.5-0.1z M48.7,17.3c-4.9,0-9.1,3.4-10.9,8.3L37.7,26c7.6,3.1,14.8,7.3,21.2,12.4
					c1.1-2.1,1.7-4.6,1.7-7.2C60.7,23.5,55.3,17.3,48.7,17.3z"/>
			</g>
			<g id="name_and_slogan_id_00000001624791285787237410000005621387005925719684_">
				<g>
					<g id="nameDefaultGroup_00000078767694880259756940000009022078853197473442_">
						<path class="st1" d="M-26.7,249.4c3.8,0,7.1,1.1,9.7,3.3s3.9,5.6,3.9,10l0,0v21.5c0,2,0.3,3.3,0.9,3.9
							c0.7,0.6,2.1,0.9,4.3,0.9l0,0h1.7c0.4,0,0.6,0.1,0.8,0.4c0.3,0.3,0.4,0.5,0.4,0.8l0,0c0,0.3-0.1,0.5-0.4,0.7
							c-0.2,0.3-0.4,0.4-0.8,0.4l0,0h-18.1c-0.9,0-1.3-0.4-1.3-1.2l0,0c0-0.7,0.4-1.1,1.3-1.1l0,0h1.7c1.4,0,2.4-0.4,2.9-1.2
							c0.4-0.8,0.7-2,0.7-3.6l0,0v-20.4c0-3.7-0.8-6.7-2.3-8.8s-3.7-3.2-6.7-3.2l0,0c-2,0-4.2,0.6-6.5,1.9c-2.4,1.2-4,2.5-4.9,3.7
							l0,0l-1.6,2.3v25.1c0,1.4,0.4,2.5,1.3,3.2c0.8,0.7,2,1.1,3.6,1.1l0,0h1.7c0.8,0,1.2,0.4,1.2,1.1l0,0c0,0.8-0.4,1.2-1.2,1.2
							l0,0h-17.1c-0.4,0-0.7-0.1-0.9-0.4c-0.3-0.3-0.4-0.6-0.4-0.9l0,0c0-0.6,0.4-0.9,1.3-0.9l0,0h1.5c0.8,0,1.6-0.2,2.3-0.5l0,0
							c0.6-0.3,0.9-1.6,0.9-4.1l0,0v-44.7c0-1.3-0.3-2.1-0.9-2.4c-0.7-0.3-2-0.4-3.7-0.4l0,0h-1.3c-0.9,0-1.3-0.4-1.3-1.2l0,0
							c0-0.8,0.4-1.2,1.3-1.2l0,0h0.9c1.2,0,2.8-0.2,4.5-0.7c1.8-0.5,3.1-1,4-1.5l0,0l2.3-1.3v25.6c1.9-1.7,3.4-3,4.7-3.9
							c1.2-0.9,2.6-1.6,4.3-2.3C-30.5,249.7-28.7,249.4-26.7,249.4L-26.7,249.4 M16.3,289c1.9,0,3.8-0.5,5.9-1.6
							c2-1.1,3.6-2.4,4.9-4.1c1.2-1.6,1.9-3.2,1.9-4.9l0,0v-19.5c0-1.1-0.3-2-0.9-2.7c-0.5-0.7-1.3-1.1-2.4-1.1l0,0h-1.5
							c-0.4,0-0.8-0.1-0.9-0.3c-0.3-0.3-0.4-0.5-0.4-0.8l0,0c0-0.4,0.1-0.7,0.4-0.9c0.3-0.3,0.6-0.4,1.1-0.4l0,0H26
							c0.5,0,1.8-0.3,3.7-0.9c2-0.6,3.2-1.1,3.6-1.3l0,0l1.3-0.9V284c0,1.3,0,2.3,0.1,2.9s0.3,1.1,0.7,1.5s1,0.6,1.9,0.7l0,0l2,0.1
							c0.4,0.1,0.8,0.2,1.1,0.4c0.3,0.3,0.4,0.5,0.4,0.8l0,0c0,0.3-0.1,0.5-0.4,0.7c-0.3,0.2-0.7,0.3-1.2,0.3l0,0H28.9v-6.8
							c-1.6,2.1-3.3,3.8-5.2,5.1c-1.9,1.2-4.5,1.9-8,2.1l0,0c-0.4,0.1-0.9,0.1-1.6,0.1l0,0c-3.8,0-6.7-1-8.5-3.1
							c-2-2-2.9-4.8-2.9-8.3l0,0v-21.3c0-1.2-0.3-2.2-0.9-2.9c-0.6-0.8-1.5-1.2-2.7-1.2l0,0h-1.3c-0.7,0-1.1-0.4-1.1-1.2l0,0
							c0-0.8,0.4-1.2,1.1-1.2l0,0H-1c0.9,0,2-0.1,3.5-0.4c1.5-0.3,2.8-0.8,3.9-1.5l0,0l1.7-1.2v29.6c0,3.2,0.6,5.6,1.9,7.2
							C11.1,288.1,13.2,289,16.3,289L16.3,289 M59.7,289h2.7c0.6,0,0.9,0.4,0.9,1.1l0,0c0,0.4,0,0.6-0.1,0.8
							c-0.2,0.3-0.4,0.4-0.8,0.4l0,0H41.9c-0.9,0-1.3-0.4-1.3-1.1l0,0c0-0.8,0.4-1.2,1.3-1.2l0,0h2.9c1.5,0,2.5-0.4,3.1-1.1
							c0.5-0.7,0.8-1.8,0.8-3.3l0,0v-43.2c0-1.8-0.2-3.1-0.7-4c-0.4-0.9-1.2-1.3-2.5-1.3l0,0h-2.3c-0.4,0-0.7-0.1-0.9-0.3
							c-0.3-0.2-0.4-0.4-0.4-0.7l0,0c0-0.4,0.1-0.6,0.4-0.8c0.3-0.2,0.6-0.3,0.9-0.4l0,0l2.3-0.1c1.1-0.1,2.4-0.4,4-0.8
							c1.5-0.4,2.7-0.8,3.5-1.2l0,0l2-1.1v53.7c0,1.5,0.1,2.6,0.3,3.2s0.6,1,1.2,1.2C57,288.9,58.1,289,59.7,289L59.7,289
							 M75.5,231.2c1.3,0,2.5,0.4,3.6,1.3c1,1,1.5,2.3,1.5,4l0,0c0,1.3-0.4,2.4-1.2,3.1c-0.8,0.7-1.8,1.1-2.9,1.1l0,0
							c-1.5,0-2.8-0.4-3.9-1.3c-1.1-0.9-1.5-2.1-1.3-3.6l0,0c0-1.4,0.4-2.5,1.2-3.3C73.4,231.7,74.4,231.2,75.5,231.2L75.5,231.2
							 M83.9,288.7h3.3c0.4,0,0.8,0.1,0.9,0.4c0.3,0.2,0.4,0.4,0.4,0.8l0,0c0,0.4-0.1,0.7-0.4,0.9c-0.2,0.3-0.4,0.4-0.8,0.4l0,0h-20
							h-0.4c-0.6,0-0.9-0.4-0.9-1.2l0,0c0-0.9,0.5-1.3,1.5-1.3l0,0H69c1.4,0,2.4-0.1,3.1-0.3c0.6-0.2,1.1-0.6,1.3-1.2
							c0.3-0.5,0.4-1.4,0.4-2.7l0,0v-25.7c0-1.2-0.4-2.2-1.2-2.8c-0.8-0.7-1.9-1.1-3.3-1.1l0,0H68c-0.4,0-0.8-0.1-0.9-0.3
							c-0.3-0.2-0.4-0.4-0.4-0.8l0,0c0-0.4,0.1-0.6,0.3-0.8c0.3-0.2,0.6-0.3,0.9-0.3l0,0h1.5c0.9,0,2.1-0.3,3.7-0.8
							c1.7-0.5,3.2-1.1,4.4-1.7l0,0l2.4-1.2v35.6c0,0.4,0,1,0,2s0.3,1.6,0.9,1.7C81.4,288.6,82.4,288.7,83.9,288.7L83.9,288.7
							 M116.2,261.6c0-2.6-0.1-4.4-0.4-5.6c-0.4-1.2-1.1-2-2.3-2.7c-1.2-0.5-3-0.8-5.6-0.8l0,0c-2.9,0-5.1,0.3-6.4,0.9
							c-1.4,0.6-2.1,1.8-2.1,3.5l0,0v2.9c0,0.1-0.2,0.8-0.7,2l0,0c-0.3,0.9-1.4,1.3-3.5,1.3l0,0c-1.1,0-1.9-0.4-2.4-1.1
							c-0.5-0.6-0.8-1.5-0.8-2.5l0,0c0-1.3,0.5-2.8,1.5-4.3l0,0c1.3-1.9,3.5-3.3,6.4-4.4c2.9-1,5.9-1.5,8.9-1.5l0,0
							c3.7,0,6.8,0.8,9.2,2.5c2.5,1.7,3.9,4.3,4.1,7.7l0,0v4.7l0.3,20.1c0,1.8,0.2,2.9,0.5,3.3l0,0c0.1,0.2,0.3,0.3,0.5,0.3l0,0
							c0.1,0,0.4,0,0.8-0.1l0,0l1.1-0.8l0.7-0.1c0.8,0,1.2,0.4,1.2,1.2l0,0c0,0.4-0.1,0.9-0.3,1.3l0,0c-0.5,0.6-1.4,1.2-2.7,1.7
							c-1.2,0.5-2.4,0.8-3.6,0.8l0,0c-1.7,0-2.8-0.5-3.5-1.6l0,0c-0.4-0.4-0.6-1-0.7-2l0,0l-0.1-1.3c-1.6,1.6-3.6,2.8-5.9,3.7
							c-2.3,0.9-4.9,1.3-7.7,1.3l0,0c-1.8,0-3.6-0.2-5.5-0.5l0,0c-5-1-7.5-3.6-7.5-7.7l0,0c0-3.7,1.3-7,4-9.9
							c2.6-2.8,5.8-4.9,9.7-6.5c3.8-1.6,7.5-2.6,10.9-2.9l0,0l1.9-0.1V261.6 M96.9,282.4c0,2.2,0.7,3.9,2,4.9
							c1.4,1.1,3.2,1.6,5.3,1.6l0,0c2,0,4.1-0.4,6.3-1.2c2-0.8,3.5-1.7,4.4-2.8l0,0l1.6-1.7v-16.4c-2.5,0.3-5.3,1.1-8.4,2.5
							s-5.8,3.3-8,5.6C97.9,277.3,96.9,279.8,96.9,282.4L96.9,282.4 M153.4,249.1c4.8,0,8.2,1.4,10.3,4.1c2,2.8,3.1,6.2,3.1,10.1
							l0,0v21.9c0,1.6,0.2,2.6,0.7,2.9c0.4,0.4,1.3,0.7,2.9,0.7l0,0h1.9c0.4,0,0.6,0.1,0.8,0.4c0.3,0.2,0.4,0.4,0.4,0.8l0,0
							c0,0.3-0.1,0.5-0.4,0.8c-0.3,0.3-0.5,0.4-0.8,0.4l0,0h-16.1c-0.4,0-0.8-0.1-1.1-0.4s-0.4-0.5-0.4-0.8l0,0
							c0-0.4,0.1-0.6,0.4-0.8c0.3-0.3,0.6-0.4,1.1-0.4l0,0h2c1.2,0,1.9-0.3,2.3-0.8c0.3-0.5,0.4-1.5,0.4-2.9l0,0v-22.5
							c0-3.2-0.5-5.8-1.6-7.9c-1.2-2-3.3-3.1-6.4-3.1l0,0c-2.7,0-5,0.6-6.9,1.9c-1.9,1.2-3.3,2.8-4.4,4.8c-1.1,2-1.6,3.9-1.6,5.9
							l0,0V285c0,1.2,0,2.1,0.1,2.5c0.2,0.5,0.5,0.9,0.9,1.1s1.2,0.3,2.3,0.3l0,0h1.9c0.4,0,0.6,0.1,0.8,0.4
							c0.3,0.2,0.4,0.4,0.4,0.8l0,0c0,0.3-0.1,0.5-0.4,0.8c-0.3,0.3-0.5,0.4-0.8,0.4l0,0h-15.7c-0.4,0-0.8-0.1-0.9-0.4
							c-0.3-0.2-0.4-0.4-0.4-0.8l0,0c0-0.3,0.1-0.5,0.4-0.8c0.2-0.3,0.5-0.4,0.9-0.4l0,0h1.9c1.1,0,1.8-0.3,2.1-0.8
							c0.4-0.5,0.5-1.5,0.5-2.9l0,0V261c0-4-1-6-3.1-6l0,0h-2.1c-0.9,0-1.3-0.3-1.3-0.9l0,0c0-0.8,0.5-1.2,1.5-1.3l0,0l2.4-0.1
							c0.7-0.1,1.8-0.4,3.2-0.8c1.5-0.5,2.7-1.1,3.5-1.6l0,0l1.3-1.1v9.5c1.4-2.7,3.3-4.9,5.6-6.7
							C147.1,250,149.9,249.1,153.4,249.1L153.4,249.1 M209.8,256c0.4-0.8,0.5-1.5,0.5-2.1l0,0c0-1.4-0.8-2.1-2.4-2.1l0,0h-3.5
							c-0.4,0-0.6-0.1-0.8-0.3c-0.3-0.3-0.4-0.6-0.4-0.9l0,0c0-0.3,0.1-0.5,0.3-0.8c0.3-0.2,0.6-0.3,0.9-0.3l0,0H221
							c0.4,0,0.7,0.1,0.9,0.3c0.2,0.3,0.3,0.5,0.3,0.8l0,0c0,0.4-0.1,0.7-0.4,0.9c-0.2,0.2-0.4,0.3-0.8,0.3l0,0h-2
							c-1.5,0-2.7,0.4-3.6,1.2c-0.9,0.8-1.7,2.1-2.4,3.9l0,0l-15.2,35.9c-3,7.1-7,10.7-11.9,10.7l0,0c-1.7,0-3.1-0.4-4.1-1.2
							c-1-0.8-1.5-1.9-1.5-3.3l0,0c0-0.7,0.3-1.4,0.8-2c0.6-0.6,1.4-0.9,2.3-0.9l0,0c0.9,0,1.9,0.4,2.9,1.1l0,0l1.7,1.2
							c0.4,0.3,0.7,0.5,0.9,0.7c0.4,0.1,0.7,0.1,0.9,0.1l0,0c0.9,0,1.8-0.6,2.8-1.7l0,0c1.1-1.2,1.9-2.8,2.4-4.5l0,0l0.7-2.4
							l-11.6-33.5c-0.8-1.5-1.6-2.7-2.5-3.6c-0.8-1-1.8-1.5-2.9-1.5l0,0h-2c-1,0-1.5-0.4-1.5-1.2l0,0c0-0.7,0.5-1.1,1.5-1.1l0,0
							h19.6c0.4,0,0.8,0.1,1.1,0.4c0.3,0.2,0.4,0.4,0.4,0.8l0,0c0,0.4-0.1,0.6-0.4,0.8c-0.3,0.2-0.6,0.3-1.1,0.3l0,0H193
							c-2.2,0-3.3,0.7-3.3,2.1l0,0c0,0.6,0.2,1.4,0.7,2.4l0,0l9.5,24.9L209.8,256 M244.3,289c1.9,0,3.8-0.5,5.9-1.6
							c2-1.1,3.6-2.4,4.9-4.1c1.2-1.6,1.9-3.2,1.9-4.9l0,0v-19.5c0-1.1-0.3-2-0.9-2.7c-0.5-0.7-1.3-1.1-2.4-1.1l0,0h-1.5
							c-0.4,0-0.8-0.1-1.1-0.3c-0.2-0.3-0.3-0.5-0.3-0.8l0,0c0-0.4,0.1-0.7,0.4-0.9c0.3-0.3,0.6-0.4,1.1-0.4l0,0h1.6
							c0.5,0,1.8-0.3,3.7-0.9c2-0.6,3.2-1.1,3.6-1.3l0,0l1.3-0.9V284c0,1.3,0,2.3,0.1,2.9s0.3,1.1,0.7,1.5c0.4,0.4,1,0.6,1.9,0.7
							l0,0l2,0.1c0.4,0.1,0.8,0.2,1.1,0.4c0.3,0.3,0.4,0.5,0.4,0.8l0,0c0,0.3-0.1,0.5-0.4,0.7s-0.7,0.3-1.2,0.3l0,0h-10.3v-6.8
							c-1.6,2.1-3.3,3.8-5.2,5.1c-1.9,1.2-4.5,1.9-8,2.1l0,0c-0.4,0.1-0.9,0.1-1.6,0.1l0,0c-3.8,0-6.7-1-8.5-3.1
							c-2-2-2.9-4.8-2.9-8.3l0,0v-21.3c0-1.2-0.3-2.2-0.9-2.9c-0.6-0.8-1.5-1.2-2.7-1.2l0,0h-1.3c-0.7,0-1.1-0.4-1.1-1.2l0,0
							c0-0.8,0.4-1.2,1.1-1.2l0,0h1.3c0.9,0,2-0.1,3.5-0.4c1.5-0.3,2.8-0.8,3.9-1.5l0,0l1.7-1.2v29.6c0,3.2,0.6,5.6,1.9,7.2
							C239.1,288.1,241.2,289,244.3,289L244.3,289"/>
					</g>
				</g>
			</g>
		</g>
	</g>
</g>
</svg>
